<?xml version="1.0" standalone="no"?><!DOCTYPE svg PUBLIC "-//W3C//DTD SVG 1.1//EN" "http://www.w3.org/Graphics/SVG/1.1/DTD/svg11.dtd"><svg t="1536635249534" class="icon" style="" viewBox="0 0 1024 1024" version="1.1" xmlns="http://www.w3.org/2000/svg" p-id="760" xmlns:xlink="http://www.w3.org/1999/xlink" width="200" height="200"><defs><style type="text/css"></style></defs><path d="M484.38264415 31.88205037l0 56.53086815C277.94788503 102.0844563 112.44035792 267.59076978 98.77124741 474.02674252l-56.53208178 0c-15.10604801 0-27.3406483 12.23338667-27.3406483 27.3406483l0 0.55220148c0 15.10726163 12.23338667 27.3406483 27.3406483 27.34064829l56.53086815 0C112.44157155 735.69621333 277.94909867 901.20374045 484.38385777 914.87406459l1e-8 56.53086816c0 15.10726163 12.2346003 27.34186192 27.3406483 27.34186192l0.5534151 0c15.10604801 0 27.3406483-12.2346003 27.3406483-27.34064831l0-56.53208177C746.05211497 901.20374045 911.55964208 735.69621333 925.22875259 529.26024059l56.53208178 0c15.10604801 0 27.3406483-12.23338667 27.3406483-27.34064829l0-0.55220148c0-15.10604801-12.23338667-27.3406483-27.3406483-27.3406483l-56.53086815 0c-13.67153778-206.43597276-179.17906489-371.94349985-385.613824-385.613824l0-56.53086816c0-15.10726163-12.2346003-27.3406483-27.3406483-27.34064828l-0.5534151 0c-15.10604801 0-27.3406483 12.23338667-27.3406483 27.34064829z m0 139.60260266l0 48.49542638c-134.07937422 13.04894578-241.01106725 119.98063882-254.06122667 254.06122667l-48.48086281 0c13.33900325-160.74524445 141.81262222-289.21764978 302.54208948-302.55665305z m55.2347117 178.54312297l0-88.33281897c111.18425125 12.73097482 199.59959703 101.14632059 212.33178548 212.33178549l-88.33281896 0c-15.10604801 0-27.3406483 12.23338667-27.34064829 27.3406483l0 0.55220148c0 15.10726163 12.23338667 27.3406483 27.34064829 27.34064829l88.33281896 0c-12.73097482 111.18546489-101.14753422 199.60081067-212.33178548 212.33178549l0-88.33160533c0-15.10726163-12.2346003-27.3406483-27.34064829-27.3406483l-0.55341512 0c-15.10604801 0-27.3406483 12.23338667-27.34064829 27.3406483l0 88.33160533c-111.18425125-12.73097482-199.59959703-101.14632059-212.33178548-212.33178549l88.33281896 0c15.10604801 0 27.3406483-12.23338667 27.34064829-27.34064829l0-0.55220148c0-15.10604801-12.23338667-27.3406483-27.34064829-27.3406483l-88.33281896 0c12.73097482-111.18546489 101.14753422-199.60081067 212.33178548-212.33178549l0 88.33281897c0 15.10604801 12.2346003 27.3406483 27.3406483 27.3406483l0.5534151 0c15.10604801 0 27.3406483-12.2346003 27.3406483-27.3406483zM181.84055467 529.26024059l48.49664 0c13.03438222 134.07937422 119.96728889 241.01228089 254.04544948 254.06122666l0 48.48086283c-160.72946725-13.33778964-289.20308622-141.81262222-302.54208948-302.54208949zM539.61735585 831.8035437l0-48.49421273c134.07937422-13.04894578 241.01106725-119.98185245 254.06122667-254.06122667l48.49421272 0C828.82044208 689.99092148 700.34682311 818.46332682 539.61735585 831.80233008z m302.54208947-357.77558755l-48.49663999 0c-13.03438222-134.07937422-119.96728889-241.01228089-254.04544948-254.06122667l0-48.49421273c160.72946725 13.35235318 289.20308622 141.82475852 302.54208947 302.5554394z" p-id="761"></path></svg>